<?xml version="1.0" encoding="UTF-8"?>
<svg version="1.1" xmlns="http://www.w3.org/2000/svg" width="1024" height="1024">
<path d="M0 0 C337.92 0 675.84 0 1024 0 C1024 337.92 1024 675.84 1024 1024 C686.08 1024 348.16 1024 0 1024 C0 686.08 0 348.16 0 0 Z " fill="#FDFDFC" transform="translate(0,0)"/>
<path d="M0 0 C7.6877429 5.4158061 13.80461616 11.52304752 18.4453125 19.72265625 C18.81785156 20.36074219 19.19039062 20.99882812 19.57421875 21.65625 C21.59212527 26.44312243 21.39233591 32.27177592 19.53515625 37.078125 C16.38790952 42.47195943 12.4266962 45.72886168 6.4453125 47.72265625 C0.70559609 48.30635622 -2.7681899 47.75995852 -7.546875 44.48046875 C-10.71420107 41.70751791 -13.13991543 38.42940061 -15.6875 35.09375 C-19.89413774 29.7518481 -24.79282035 26.16768822 -31.5546875 24.72265625 C-40.48262251 23.6823975 -47.09716119 24.68849985 -54.5546875 29.72265625 C-61.23137994 35.31068933 -67.44974166 41.43946573 -73.6328125 47.5625 C-74.44788269 48.36949844 -75.26295288 49.17649689 -76.10272217 50.00794983 C-77.80820751 51.69972677 -79.5122352 53.39297437 -81.21484375 55.08764648 C-82.94412167 56.80535024 -84.67787119 58.51856374 -86.41601562 60.22729492 C-88.95657847 62.72502046 -91.48347259 65.2358917 -94.0078125 67.75 C-94.77667786 68.50135727 -95.54554321 69.25271454 -96.33770752 70.02684021 C-105.11873463 78.84315225 -110.95778136 88.15178945 -110.9921875 100.84765625 C-110.963922 111.76756188 -107.70875409 120.67681645 -100.0703125 128.6796875 C-91.00438694 136.04223264 -80.21297956 139.8457753 -68.5546875 138.72265625 C-55.53061351 135.95997389 -46.99699346 129.68079823 -37.8671875 120.28515625 C-36.78727539 119.19750977 -36.78727539 119.19750977 -35.68554688 118.08789062 C-31.44361442 113.7840886 -27.43203711 109.3571576 -23.5546875 104.72265625 C-22.3584375 104.99078125 -21.1621875 105.25890625 -19.9296875 105.53515625 C-19.09695313 105.715625 -18.26421875 105.89609375 -17.40625 106.08203125 C-15.45639006 106.52008198 -13.51358434 106.99044656 -11.578125 107.48828125 C-0.96720552 110.07136905 9.56384667 110.44072878 20.4453125 110.72265625 C17.7582344 113.41472892 15.06534092 116.1003478 12.359375 118.7734375 C5.30047722 125.76325543 -1.6338514 132.71726542 -7.5546875 140.72265625 C-5.55595956 140.83234254 -3.55541035 140.90899689 -1.5546875 140.97265625 C-0.4409375 141.0190625 0.6728125 141.06546875 1.8203125 141.11328125 C10.72014734 140.15424732 16.02527129 134.69883036 22.0078125 128.47265625 C23.08192383 127.38404297 23.08192383 127.38404297 24.17773438 126.2734375 C28.2610437 122.1046722 32.16086221 117.82566372 35.91772461 113.36035156 C38.46281959 110.63180799 40.0680267 109.75346793 43.80230713 109.44850159 C45.21476844 109.42744926 46.62742145 109.4175474 48.04003906 109.41625977 C48.81307877 109.40793625 49.58611847 109.39961273 50.38258362 109.39103699 C52.95041935 109.3668671 55.51799984 109.35814617 58.0859375 109.3515625 C59.88743154 109.34258481 61.68892487 109.33346277 63.49041748 109.32420349 C67.28350628 109.30768056 71.07650668 109.30001029 74.86962891 109.29711914 C78.71789614 109.29285107 82.56548115 109.27228976 86.41357422 109.2355957 C113.18187349 108.98475948 138.11496937 109.149635 162.4453125 121.72265625 C163.38503906 122.20605469 164.32476563 122.68945312 165.29296875 123.1875 C171.80348834 126.82010831 177.08624427 131.58084754 182.4453125 136.72265625 C183.0846875 137.31046875 183.7240625 137.89828125 184.3828125 138.50390625 C213.66522725 166.21762021 218.74361569 216.56945363 226.95327759 253.96809387 C228.10890994 259.22537851 229.29090941 264.47643843 230.47889709 269.72650146 C231.47622776 274.14146436 232.46515938 278.55828819 233.45291138 282.97540283 C233.93857781 285.14058834 234.42712985 287.30512911 234.91891479 289.46893311 C237.41810572 300.48011421 239.7135655 311.45760328 241.25390625 322.6484375 C241.3742926 323.52287003 241.49467896 324.39730255 241.61871338 325.29823303 C244.29299988 346.16408303 242.63058274 368.88624619 230.4453125 386.72265625 C219.76962273 400.08828361 207.25181392 408.70600811 190.4453125 412.72265625 C173.11800344 414.61372258 157.4614048 411.39731215 143.4453125 400.72265625 C142.69121094 400.1503125 141.93710937 399.57796875 141.16015625 398.98828125 C127.13503291 387.41198897 117.43658361 370.29273487 107.890625 355.0703125 C98.99680651 340.78903627 98.99680651 340.78903627 88.4453125 327.72265625 C87.56166016 326.73652344 87.56166016 326.73652344 86.66015625 325.73046875 C78.40098351 316.96332866 66.78791601 310.16094228 54.524683 309.58564186 C52.80976945 309.57728341 52.80976945 309.57728341 51.06021118 309.5687561 C49.08815704 309.55585541 49.08815704 309.55585541 47.07626343 309.54269409 C45.6206669 309.53825905 44.16506995 309.53396068 42.70947266 309.52978516 C41.17496558 309.52188032 39.64046034 309.51361113 38.10595703 309.50500488 C33.06544766 309.4788145 28.02493015 309.46347364 22.984375 309.44921875 C21.24497854 309.4438566 19.50558213 309.43847909 17.76618576 309.4330864 C10.52420839 309.41145619 3.2822332 309.39272433 -3.9597683 309.381464 C-14.31236747 309.36525817 -24.66458935 309.3321642 -35.01704633 309.27506316 C-42.30900511 309.23622664 -49.60086359 309.21681479 -56.892923 309.21154344 C-61.24071112 309.20790681 -65.58809658 309.19606814 -69.93577194 309.1634407 C-74.03500731 309.13312006 -78.13360149 309.12713244 -82.23292542 309.13882446 C-83.72675099 309.13904326 -85.22060841 309.13090179 -86.71432877 309.11317062 C-102.47850715 308.93643204 -114.79754869 313.02517373 -126.5546875 323.72265625 C-133.73074217 331.00725628 -138.8787367 339.75102312 -144.234375 348.39453125 C-147.84782412 354.22069815 -151.56539364 359.97666103 -155.3046875 365.72265625 C-155.90619629 366.65303711 -156.50770508 367.58341797 -157.12744141 368.54199219 C-170.29681104 388.76213939 -183.75835184 406.44272262 -208.35229492 412.32128906 C-225.27789762 415.40583521 -241.28192783 411.76622437 -255.77734375 402.71875 C-269.82281485 392.62418497 -278.54638419 377.37253153 -282.5546875 360.72265625 C-285.46750569 341.57516023 -283.49716321 322.54618575 -279.5546875 303.72265625 C-279.21655029 302.0991626 -279.21655029 302.0991626 -278.87158203 300.44287109 C-247.44863055 152.07448853 -247.44863055 152.07448853 -207.98046875 125.82421875 C-189.0979292 113.99484714 -170.38601552 110.64442343 -148.5546875 109.72265625 C-148.58949219 108.4903125 -148.62429688 107.25796875 -148.66015625 105.98828125 C-149.02673733 87.88834019 -145.5359615 71.28132693 -133.1796875 57.34765625 C-131.65913662 55.78515914 -130.11690695 54.2434924 -128.5546875 52.72265625 C-127.71421875 51.8821875 -126.87375 51.04171875 -126.0078125 50.17578125 C-124.38538323 48.55335198 -122.75380025 46.93997471 -121.109375 45.33984375 C-119.11295523 43.29458191 -117.24650853 41.23244829 -115.38549805 39.06884766 C-109.48932524 32.30898553 -103.14985641 25.97796061 -96.84204102 19.60498047 C-95.28163971 18.02301726 -93.72752749 16.43482472 -92.17993164 14.84033203 C-65.54891324 -12.58669915 -34.27448499 -21.54553638 0 0 Z " fill="#003859" transform="translate(527.5546875,239.27734375)"/>
<path d="M0 0 C16.72509752 12.0707791 28.55343 29.44162025 32 50 C33.64098249 68.94289807 30.28395109 86.34933903 18.625 101.75 C10.11179554 111.85244949 0.94250406 121.23411867 -8.37890625 130.58203125 C-9.39412511 131.60149117 -9.39412511 131.60149117 -10.42985344 132.64154625 C-14.00255646 136.22912726 -17.57803632 139.81391185 -21.15600586 143.39624023 C-24.83319107 147.07893418 -28.50098363 150.77083805 -32.16671848 154.46492481 C-35.00736269 157.3242365 -37.85473541 160.17677563 -40.70396233 163.02753258 C-42.05913996 164.38572127 -43.41183504 165.74639203 -44.76190376 167.10965919 C-46.65134277 169.01626637 -48.55014839 170.91305908 -50.45141602 172.80786133 C-50.99761093 173.36327103 -51.54380585 173.91868073 -52.10655212 174.49092102 C-63.29475327 185.56113153 -77.20081406 189.47463436 -92.625 189.5625 C-101.67932858 189.43739956 -109.56134343 188.47048789 -118 185 C-119.16660156 184.525625 -120.33320313 184.05125 -121.53515625 183.5625 C-133.83656913 177.99406936 -146.29287102 168.03655637 -152.15234375 155.54296875 C-153.78695321 150.63914036 -154.05378726 145.54737828 -152.0546875 140.71484375 C-149.26115276 136.01502902 -145.95125276 132.47562638 -141 130 C-135.63051319 129.4296448 -129.88820543 128.82705401 -125.1875 131.875 C-121.66179367 134.8641858 -119.35908103 138.73636321 -116.82421875 142.55859375 C-113.02721545 147.64023628 -108.00558181 151.02775272 -102 153 C-99.02214457 153.38992847 -99.02214457 153.38992847 -95.875 153.375 C-94.84117187 153.40335938 -93.80734375 153.43171875 -92.7421875 153.4609375 C-79.40762607 151.81847586 -72.3816761 144.36357288 -63.390625 135.1796875 C-62.01196044 133.79556914 -60.63195086 132.41278933 -59.25067139 131.03128052 C-56.3689062 128.14181614 -53.49908137 125.24117913 -50.63818359 122.33105469 C-46.99168269 118.62235421 -43.32376972 114.93580054 -39.64752579 111.25660515 C-36.79979341 108.4041451 -33.96020291 105.54369564 -31.12328339 102.68048477 C-29.77424709 101.31948362 -28.423598 99.96007893 -27.07123566 98.60238266 C-10.6682147 82.32781126 -10.6682147 82.32781126 -4.5625 60.625 C-4.91111886 50.34074372 -8.68214056 41.24597477 -16 34 C-26.43738998 25.57619499 -35.75654004 23.9111033 -48.81835938 24.75439453 C-61.42805007 26.17397251 -71.09226141 39.01606364 -79.421875 47.5703125 C-80.17572983 48.34139847 -80.92958466 49.11248444 -81.70628357 49.90693665 C-86.43884593 54.7478221 -86.43884593 54.7478221 -91.14306641 59.61621094 C-93.44923621 62.01288381 -95.776843 64.38682662 -98.109375 66.7578125 C-98.81261902 67.50032257 -99.51586304 68.24283264 -100.24041748 69.00784302 C-105.20194461 73.99727079 -105.20194461 73.99727079 -109.28393555 74.01123047 C-110.18023682 73.67752441 -111.07653809 73.34381836 -112 73 C-113.10472656 72.690625 -114.20945312 72.38125 -115.34765625 72.0625 C-116.57355469 71.711875 -117.79945313 71.36125 -119.0625 71 C-128.90287711 68.34593675 -138.86243381 68.18847377 -149 68 C-144.83552483 63.02690432 -140.49440199 58.37063616 -135.87890625 53.81640625 C-135.21592026 53.15720688 -134.55293427 52.49800751 -133.86985779 51.8188324 C-131.06475934 49.02990654 -128.25370319 46.2470149 -125.44311523 43.46362305 C-123.37792822 41.41667167 -121.31586679 39.36660694 -119.25390625 37.31640625 C-118.63077042 36.70156876 -118.00763458 36.08673126 -117.36561584 35.45326233 C-113.59867252 31.70703158 -110.04661789 27.83220624 -106.5738678 23.81208801 C-78.22272817 -8.83027264 -39.80102325 -25.56076011 0 0 Z " fill="#2F90BE" transform="translate(625,148)"/>
<path d="M0 0 C7.6877429 5.4158061 13.80461616 11.52304752 18.4453125 19.72265625 C18.81785156 20.36074219 19.19039062 20.99882812 19.57421875 21.65625 C21.59212527 26.44312243 21.39233591 32.27177592 19.53515625 37.078125 C16.38790952 42.47195943 12.4266962 45.72886168 6.4453125 47.72265625 C0.70559609 48.30635622 -2.7681899 47.75995852 -7.546875 44.48046875 C-10.71420107 41.70751791 -13.13991543 38.42940061 -15.6875 35.09375 C-19.89413774 29.7518481 -24.79282035 26.16768822 -31.5546875 24.72265625 C-40.48262251 23.6823975 -47.09716119 24.68849985 -54.5546875 29.72265625 C-61.23137994 35.31068933 -67.44974166 41.43946573 -73.6328125 47.5625 C-74.44788269 48.36949844 -75.26295288 49.17649689 -76.10272217 50.00794983 C-77.80820751 51.69972677 -79.5122352 53.39297437 -81.21484375 55.08764648 C-82.94412167 56.80535024 -84.67787119 58.51856374 -86.41601562 60.22729492 C-88.95657847 62.72502046 -91.48347259 65.2358917 -94.0078125 67.75 C-94.77667786 68.50135727 -95.54554321 69.25271454 -96.33770752 70.02684021 C-105.11873463 78.84315225 -110.95778136 88.15178945 -110.9921875 100.84765625 C-110.963922 111.76756188 -107.70875409 120.67681645 -100.0703125 128.6796875 C-91.00438694 136.04223264 -80.21297956 139.8457753 -68.5546875 138.72265625 C-55.53061351 135.95997389 -46.99699346 129.68079823 -37.8671875 120.28515625 C-36.78727539 119.19750977 -36.78727539 119.19750977 -35.68554688 118.08789062 C-31.44361442 113.7840886 -27.43203711 109.3571576 -23.5546875 104.72265625 C-22.3584375 104.99078125 -21.1621875 105.25890625 -19.9296875 105.53515625 C-18.68058594 105.80585938 -18.68058594 105.80585938 -17.40625 106.08203125 C-15.45639006 106.52008198 -13.51358434 106.99044656 -11.578125 107.48828125 C-0.96720552 110.07136905 9.56384667 110.44072878 20.4453125 110.72265625 C17.7582344 113.41472892 15.06534092 116.1003478 12.359375 118.7734375 C2.43922843 128.58298524 2.43922843 128.58298524 -6.4921875 139.28515625 C-8.869035 142.09415784 -11.50212976 144.33597589 -14.3046875 146.7109375 C-16.74128059 148.88948861 -18.9380926 151.2196485 -21.1796875 153.59765625 C-30.69840757 163.16004017 -41.60704181 168.98745665 -54.5546875 172.72265625 C-55.38097656 172.96757812 -56.20726562 173.2125 -57.05859375 173.46484375 C-77.08723546 178.41269771 -96.7945267 172.77285815 -114.1171875 162.59765625 C-124.49586558 155.71894114 -132.56025864 146.59664715 -138.5546875 135.72265625 C-139.22564453 134.56056641 -139.22564453 134.56056641 -139.91015625 133.375 C-148.22223563 118.05519832 -151.09168221 101.68492666 -147.5546875 84.53515625 C-143.86365158 72.23745245 -137.75031871 61.67469458 -128.5546875 52.72265625 C-127.71421875 51.8821875 -126.87375 51.04171875 -126.0078125 50.17578125 C-124.38538323 48.55335198 -122.75380025 46.93997471 -121.109375 45.33984375 C-119.11295523 43.29458191 -117.24650853 41.23244829 -115.38549805 39.06884766 C-109.48932524 32.30898553 -103.14985641 25.97796061 -96.84204102 19.60498047 C-95.28163971 18.02301726 -93.72752749 16.43482472 -92.17993164 14.84033203 C-65.54891324 -12.58669915 -34.27448499 -21.54553638 0 0 Z " fill="#086F9C" transform="translate(527.5546875,239.27734375)"/>
<path d="M0 0 C3.59380876 2.54492448 5.97476905 5.23383722 8.54296875 8.80078125 C9.03925781 8.2696875 9.53554688 7.73859375 10.046875 7.19140625 C17.01056307 -0.04977223 22.85184502 -4.21668939 33.12768555 -4.49121094 C40.43572348 -4.56248403 46.2032308 -4.24646218 52.54296875 -0.19921875 C53.42984375 0.33703125 54.31671875 0.87328125 55.23046875 1.42578125 C61.91395331 8.28990053 65.80788855 16.77607118 65.77001953 26.35693359 C65.76979294 28.278246 65.76979294 28.278246 65.76956177 30.2383728 C65.75935084 31.6211564 65.74891889 33.00393837 65.73828125 34.38671875 C65.7345471 35.81303712 65.73170203 37.23935807 65.72970581 38.66567993 C65.72210094 42.40410552 65.70247984 46.14237358 65.68029785 49.8807373 C65.65977132 53.70171987 65.65068959 57.52272809 65.640625 61.34375 C65.61923064 68.82950692 65.58407453 76.31510187 65.54296875 83.80078125 C57.95296875 83.80078125 50.36296875 83.80078125 42.54296875 83.80078125 C42.52838623 82.07520996 42.51380371 80.34963867 42.4987793 78.57177734 C42.44703099 72.85597119 42.38171917 67.14042652 42.30725384 61.42487144 C42.26261935 57.96116866 42.22334857 54.49758161 42.1965332 51.03369141 C42.16543112 47.04694733 42.11064426 43.06069449 42.0546875 39.07421875 C42.04829758 37.83650726 42.04190765 36.59879578 42.0353241 35.32357788 C41.97918025 27.11820974 41.97918025 27.11820974 38.54296875 19.80078125 C34.04396819 16.21978924 29.99303262 16.24204659 24.4296875 16.37890625 C20.00701838 17.02525032 18.44288165 18.44298736 15.54296875 21.80078125 C13.48756398 25.0987446 13.2744233 27.72259927 13.22412109 31.57910156 C13.2042514 32.74000305 13.18438171 33.90090454 13.16390991 35.09698486 C13.1523587 36.34501892 13.1408075 37.59305298 13.12890625 38.87890625 C13.1095401 40.16061707 13.09017395 41.44232788 13.07022095 42.76287842 C13.01896248 46.1625249 12.97930346 49.5622109 12.94207764 52.96203613 C12.90199834 56.43442512 12.85092397 59.90665058 12.80078125 63.37890625 C12.70409652 70.18608499 12.62068481 76.99335979 12.54296875 83.80078125 C4.95296875 83.80078125 -2.63703125 83.80078125 -10.45703125 83.80078125 C-10.47161377 82.10550293 -10.48619629 80.41022461 -10.5012207 78.66357422 C-10.55297305 73.04754996 -10.6182859 67.43179169 -10.69274616 61.81602287 C-10.73737702 58.41285468 -10.77664855 55.00980418 -10.8034668 51.60644531 C-10.83457354 47.68919558 -10.88936017 43.77244549 -10.9453125 39.85546875 C-10.95170242 38.63963104 -10.95809235 37.42379333 -10.9646759 36.17111206 C-11.08318129 29.34169274 -11.45580341 24.42726488 -15.95703125 18.98828125 C-19.99823191 15.7889974 -25.59133253 16.25509541 -30.45703125 16.80078125 C-35.00842107 19.03509989 -37.20368491 21.31845615 -39.45703125 25.80078125 C-39.91622002 28.59419718 -39.91622002 28.59419718 -39.87353516 31.58496094 C-39.89010162 32.72253845 -39.90666809 33.86011597 -39.92373657 35.03216553 C-39.92698944 36.25002747 -39.93024231 37.4678894 -39.93359375 38.72265625 C-39.95696304 40.60624847 -39.95696304 40.60624847 -39.98080444 42.52789307 C-40.02025163 45.85495937 -40.04761883 49.18164679 -40.06829834 52.5088501 C-40.09992606 57.21154114 -40.1512848 61.91402895 -40.2046814 66.61651611 C-40.23200293 69.1193456 -40.2533125 71.62224889 -40.26821899 74.12518311 C-40.28361221 75.81263641 -40.28361221 75.81263641 -40.29931641 77.53417969 C-40.30581207 78.52947693 -40.31230774 79.52477417 -40.31900024 80.55023193 C-40.45703125 82.80078125 -40.45703125 82.80078125 -41.45703125 83.80078125 C-48.71703125 83.80078125 -55.97703125 83.80078125 -63.45703125 83.80078125 C-63.45703125 55.42078125 -63.45703125 27.04078125 -63.45703125 -2.19921875 C-56.19703125 -2.19921875 -48.93703125 -2.19921875 -41.45703125 -2.19921875 C-41.12703125 0.77078125 -40.79703125 3.74078125 -40.45703125 6.80078125 C-39.48765625 5.72828125 -38.51828125 4.65578125 -37.51953125 3.55078125 C-27.04673531 -6.71380801 -12.5749492 -7.11053133 0 0 Z " fill="#023758" transform="translate(407.45703125,753.19921875)"/>
<path d="M0 0 C3.28595043 2.43262222 6.20918241 5.01537564 9 8 C8.40735999 11.83004662 6.63390565 13.99182789 4.1875 16.9375 C3.50042969 17.77152344 2.81335938 18.60554687 2.10546875 19.46484375 C1.41066406 20.30144531 0.71585937 21.13804687 0 22 C-1.33642735 23.66418674 -2.6706778 25.33013233 -4 27 C-6.72053242 25.9312194 -7.96115987 25.05132446 -9.75 22.6875 C-14.20588651 17.36519111 -20.18873824 14.20844967 -27 13 C-37.26357161 12.17638006 -46.1756091 12.77330123 -54.69140625 18.953125 C-64.19362727 27.05337899 -70.20544488 36.00485134 -71.31640625 48.58203125 C-71.74318795 62.17020975 -67.94677416 71.78209946 -59 82 C-52.38237339 88.1890565 -45.08442975 91.43860266 -36 92 C-35.31164062 92.05285156 -34.62328125 92.10570312 -33.9140625 92.16015625 C-25.22297572 92.52097754 -17.15679955 89.71893318 -9 87 C-9 79.74 -9 72.48 -9 65 C-16.19522782 65.0395866 -16.19522782 65.0395866 -23.39038086 65.09008789 C-24.28120361 65.09258545 -25.17202637 65.09508301 -26.08984375 65.09765625 C-27.46450806 65.10551147 -27.46450806 65.10551147 -28.86694336 65.11352539 C-31 65 -31 65 -32 64 C-32.0983721 62.66956375 -32.13078592 61.33406656 -32.1328125 60 C-32.13474609 58.7934375 -32.13474609 58.7934375 -32.13671875 57.5625 C-32.13285156 56.716875 -32.12898438 55.87125 -32.125 55 C-32.13080078 53.7315625 -32.13080078 53.7315625 -32.13671875 52.4375 C-32.13542969 51.633125 -32.13414062 50.82875 -32.1328125 50 C-32.13168457 49.2575 -32.13055664 48.515 -32.12939453 47.75 C-32 46 -32 46 -31 45 C-29.65455673 44.90214659 -28.30407437 44.87202015 -26.95507812 44.87060547 C-26.09748901 44.86745331 -25.2398999 44.86430115 -24.35632324 44.86105347 C-23.42404907 44.8630777 -22.4917749 44.86510193 -21.53125 44.8671875 C-20.10528503 44.86575241 -20.10528503 44.86575241 -18.6505127 44.86428833 C-16.63631118 44.86360643 -14.62210748 44.86546138 -12.60791016 44.86962891 C-9.51329645 44.87497702 -6.4188279 44.86968423 -3.32421875 44.86328125 C-1.37239551 44.86394203 0.57942764 44.86522319 2.53125 44.8671875 C3.46352417 44.86516327 4.39579834 44.86313904 5.35632324 44.86105347 C6.21391235 44.86420563 7.07150146 44.86735779 7.95507812 44.87060547 C8.71373169 44.87140106 9.47238525 44.87219666 10.25402832 44.87301636 C12 45 12 45 13 46 C13.1295352 47.4964339 13.19111982 48.99883178 13.22460938 50.50048828 C13.25838684 51.93800949 13.25838684 51.93800949 13.29284668 53.40457153 C13.36370967 57.81162953 13.42141893 62.2185118 13.45996094 66.62597656 C13.48653313 68.94812687 13.52741932 71.27015994 13.58300781 73.59179688 C13.66225531 76.93928769 13.69529436 80.28452024 13.71875 83.6328125 C13.75174194 84.66536163 13.78473389 85.69791077 13.81872559 86.76174927 C13.8041214 92.04971765 13.46450267 95.18525815 9.69018555 99.06494141 C6.21623725 102.07852277 2.45902457 104.2939199 -1.6875 106.25 C-2.39245605 106.58644531 -3.09741211 106.92289063 -3.82373047 107.26953125 C-18.70075076 114.16549157 -37.37412828 115.97203796 -53.26953125 111.109375 C-70.42265805 104.14015038 -82.5024686 93.94379938 -90.7109375 77.21484375 C-94.07572061 68.82327861 -95.55755855 61.37250662 -95.5 52.3125 C-95.49427979 51.26102783 -95.48855957 50.20955566 -95.48266602 49.1262207 C-95.1162525 33.05214112 -88.78895984 19.66228031 -77.93359375 7.83984375 C-56.59843737 -12.4608808 -24.98193413 -14.19397599 0 0 Z " fill="#013859" transform="translate(229,726)"/>
<path d="M0 0 C1.3931543 -0.0299707 1.3931543 -0.0299707 2.81445312 -0.06054688 C8.53437571 -0.05647576 12.13651606 0.44639879 16.5625 4.4375 C18.79833837 7.8693982 18.86636051 10.91238533 18.9765625 14.953125 C19.01523437 16.20351563 19.05390625 17.45390625 19.09375 18.7421875 C19.1246875 20.04414063 19.155625 21.34609375 19.1875 22.6875 C19.22617187 24.00492187 19.26484375 25.32234375 19.3046875 26.6796875 C19.39896182 29.93215161 19.4845675 33.18460996 19.5625 36.4375 C20.42004883 36.45731934 21.27759766 36.47713867 22.16113281 36.49755859 C25.35197642 36.57579521 28.5424474 36.66249343 31.73291016 36.75488281 C33.11205243 36.79309338 34.49129167 36.82796002 35.87060547 36.859375 C37.85666967 36.90519624 39.84241679 36.96416263 41.828125 37.0234375 C43.02211914 37.0548584 44.21611328 37.0862793 45.44628906 37.11865234 C48.42238043 37.4231631 50.11373791 37.7682722 52.5625 39.4375 C55.79600295 44.28775442 54.97225848 49.61007739 55 55.3125 C55.03287109 56.49714844 55.06574219 57.68179688 55.09960938 58.90234375 C55.10669922 60.04574219 55.11378906 61.18914062 55.12109375 62.3671875 C55.14127563 63.93315674 55.14127563 63.93315674 55.16186523 65.53076172 C54.33048555 69.56269922 52.83888418 70.99659103 49.5625 73.4375 C46.2409668 74.09692383 46.2409668 74.09692383 42.51171875 74.14453125 C41.85291214 74.15965256 41.19410553 74.17477386 40.51533508 74.19035339 C38.426538 74.23308566 36.3391898 74.24205265 34.25 74.25 C32.82743583 74.27315614 31.40490583 74.29852383 29.98242188 74.32617188 C26.50914196 74.38887616 23.03634387 74.42132784 19.5625 74.4375 C19.54791748 75.25951904 19.53333496 76.08153809 19.51831055 76.9284668 C19.44373667 80.66111323 19.34710488 84.39287459 19.25 88.125 C19.22744141 89.41857422 19.20488281 90.71214844 19.18164062 92.04492188 C19.1284668 93.91567383 19.1284668 93.91567383 19.07421875 95.82421875 C19.04803467 96.97108154 19.02185059 98.11794434 18.99487305 99.29956055 C18.51743424 102.76456392 17.66065356 104.66021457 15.5625 107.4375 C10.05700016 110.62929611 5.20884299 110.90069076 -1.0625 110.8125 C-1.89523437 110.82410156 -2.72796875 110.83570313 -3.5859375 110.84765625 C-8.29444362 110.82516339 -11.75506138 110.68187901 -15.4375 107.4375 C-17.96754111 103.1506039 -18.83124954 99.90001937 -18.94921875 94.9453125 C-18.98466797 93.74648438 -19.02011719 92.54765625 -19.05664062 91.3125 C-19.09047852 89.45625 -19.09047852 89.45625 -19.125 87.5625 C-19.15916016 86.30179687 -19.19332031 85.04109375 -19.22851562 83.7421875 C-19.31075167 80.64071384 -19.37998468 77.53951431 -19.4375 74.4375 C-20.32010498 74.43339111 -21.20270996 74.42928223 -22.11206055 74.42504883 C-25.4022604 74.39800016 -28.69061398 74.34885049 -31.98022461 74.28491211 C-33.40100702 74.26178497 -34.82195958 74.24734874 -36.24291992 74.24194336 C-38.29192466 74.23261339 -40.3382735 74.19154834 -42.38671875 74.14453125 C-43.61737061 74.1288208 -44.84802246 74.11311035 -46.1159668 74.09692383 C-50.37806393 73.25076989 -51.86057096 71.89668848 -54.4375 68.4375 C-55.06860352 65.65429688 -55.06860352 65.65429688 -55.06640625 62.65625 C-55.06833984 61.56699219 -55.07027344 60.47773438 -55.07226562 59.35546875 C-55.04841797 58.22753906 -55.02457031 57.09960938 -55 55.9375 C-55.01095703 54.80957031 -55.02191406 53.68164062 -55.03320312 52.51953125 C-54.96041422 44.31864789 -54.96041422 44.31864789 -52.52734375 40.21875 C-48.95417369 37.17320692 -46.54429275 37.26248934 -41.8984375 37.12109375 C-39.94550781 37.05825195 -39.94550781 37.05825195 -37.953125 36.99414062 C-36.57291955 36.95432701 -35.19271117 36.91461478 -33.8125 36.875 C-32.42446585 36.83180593 -31.03644472 36.78819135 -29.6484375 36.74414062 C-26.24489744 36.63778 -22.84128222 36.53575286 -19.4375 36.4375 C-19.42291748 35.61548096 -19.40833496 34.79346191 -19.39331055 33.9465332 C-19.31873667 30.21388677 -19.22210488 26.48212541 -19.125 22.75 C-19.10244141 21.45642578 -19.07988281 20.16285156 -19.05664062 18.83007812 C-19.02119141 17.58291016 -18.98574219 16.33574219 -18.94921875 15.05078125 C-18.92303467 13.90391846 -18.89685059 12.75705566 -18.86987305 11.57543945 C-18.26820638 7.20885463 -16.69573486 4.54117242 -13.40234375 1.65234375 C-8.95825244 -0.1686212 -4.75641681 -0.03615797 0 0 Z " fill="#FBFBFB" transform="translate(368.4375,403.5625)"/>
<path d="M0 0 C7.26 0 14.52 0 22 0 C22.33 21.12 22.66 42.24 23 64 C34.65207546 51.6380151 34.65207546 51.6380151 46 39 C51.13028391 33.29968454 51.13028391 33.29968454 55.89404297 32.53613281 C59.26328191 32.40990627 62.56948797 32.47565097 65.9375 32.625 C67.67870117 32.66560547 67.67870117 32.66560547 69.45507812 32.70703125 C72.30532275 32.77740766 75.15167719 32.87581376 78 33 C77.41420538 36.08053651 76.5632761 37.84790004 74.48046875 40.1796875 C73.69712158 41.06853638 73.69712158 41.06853638 72.89794922 41.9753418 C72.33350098 42.602229 71.76905273 43.22911621 71.1875 43.875 C70.0060939 45.21187162 68.8251147 46.5491206 67.64453125 47.88671875 C67.0407666 48.56653809 66.43700195 49.24635742 65.81494141 49.94677734 C62.9693008 53.16601833 60.17055933 56.42478055 57.375 59.6875 C56.87895264 60.26290527 56.38290527 60.83831055 55.87182617 61.43115234 C54.57132645 62.94566404 53.28498146 64.47229982 52 66 C51.37351562 66.70769531 50.74703125 67.41539062 50.1015625 68.14453125 C48.78694894 69.9163634 48.78694894 69.9163634 49.27148438 71.88061523 C50.07225291 74.21019688 51.08653883 75.79095748 52.5546875 77.765625 C53.08175293 78.48306885 53.60881836 79.2005127 54.15185547 79.93969727 C54.72049316 80.70209717 55.28913086 81.46449707 55.875 82.25 C57.06410645 83.86730969 58.25157628 85.48582381 59.4375 87.10546875 C60.035625 87.92192871 60.63375 88.73838867 61.25 89.57958984 C64.33419905 93.84531939 67.27693668 98.20611177 70.23120117 102.56225586 C73.24449015 106.97759629 76.41740342 111.20247855 79.85546875 115.30078125 C81 117 81 117 81 120 C76.93787788 120.14547545 72.87642713 120.23413226 68.8125 120.3125 C67.66201172 120.35439453 66.51152344 120.39628906 65.32617188 120.43945312 C56.838736 120.56245944 56.838736 120.56245944 53.0234375 118.00390625 C50.50566757 114.26613584 48.08922846 110.51460082 45.8125 106.625 C40.80027058 98.23190845 35.49579901 90.08275864 30 82 C26.58346154 83.43874661 25.17657435 84.09024995 23 87 C21.92934979 92.5915194 22.01919682 98.13622435 22.0625 103.8125 C22.04938562 105.37958694 22.03314305 106.94665103 22.01367188 108.51367188 C21.97289251 112.34313096 21.97496184 116.17042852 22 120 C18.35418313 120.02887512 14.70839537 120.04675585 11.0625 120.0625 C9.50112305 120.07506836 9.50112305 120.07506836 7.90820312 120.08789062 C6.91884766 120.09111328 5.92949219 120.09433594 4.91015625 120.09765625 C3.53549194 120.10551147 3.53549194 120.10551147 2.13305664 120.11352539 C0 120 0 120 -1 119 C-1.09798388 117.4714651 -1.12631831 115.93841036 -1.12698364 114.40673828 C-1.12980347 113.4139386 -1.13262329 112.42113892 -1.13552856 111.39825439 C-1.13350433 110.30003357 -1.1314801 109.20181274 -1.12939453 108.0703125 C-1.13114685 106.92085144 -1.13289917 105.77139038 -1.13470459 104.58709717 C-1.1391259 100.766383 -1.13618413 96.94571468 -1.1328125 93.125 C-1.13348546 90.48323559 -1.13445542 87.84147123 -1.13571167 85.19970703 C-1.13753321 79.65461729 -1.13512747 74.10954085 -1.13037109 68.56445312 C-1.1249285 62.14505256 -1.12669117 55.72568375 -1.1321975 49.30628395 C-1.13727426 43.14199017 -1.13674711 36.97771052 -1.13381577 30.81341553 C-1.13314622 28.1850382 -1.13397588 25.55666008 -1.13629532 22.92828369 C-1.13882019 19.26206277 -1.13498357 15.59590378 -1.12939453 11.9296875 C-1.13141876 10.83146667 -1.13344299 9.73324585 -1.13552856 8.60174561 C-1.13270874 7.60894592 -1.12988892 6.61614624 -1.12698364 5.59326172 C-1.12660662 4.72530975 -1.12622959 3.85735779 -1.12584114 2.96310425 C-1 1 -1 1 0 0 Z " fill="#023758" transform="translate(798,717)"/>
<path d="M0 0 C8.6776925 6.09562957 14.48862571 14.19722402 16.69921875 24.64453125 C16.78934068 26.29240219 16.82984765 27.94341796 16.83203125 29.59375 C16.83332031 30.52380859 16.83460938 31.45386719 16.8359375 32.41210938 C16.83207031 33.37568359 16.82820312 34.33925781 16.82421875 35.33203125 C16.82808594 36.30720703 16.83195313 37.28238281 16.8359375 38.28710938 C16.83464844 39.21330078 16.83335937 40.13949219 16.83203125 41.09375 C16.83090332 41.94283936 16.82977539 42.79192871 16.82861328 43.66674805 C16.69921875 45.64453125 16.69921875 45.64453125 15.69921875 46.64453125 C13.92018518 46.76775883 12.13635672 46.82242144 10.35327148 46.84985352 C9.21216415 46.86979874 8.07105682 46.88974396 6.89537048 46.91029358 C5.65372635 46.92700607 4.41208221 46.94371857 3.1328125 46.9609375 C1.86905289 46.9817186 0.60529327 47.00249969 -0.69676208 47.02391052 C-4.06196758 47.07836839 -7.42718298 47.12857405 -10.79248047 47.17675781 C-14.22434026 47.22692884 -17.65610956 47.2826378 -21.08789062 47.33789062 C-27.82544886 47.44523316 -34.56307461 47.5469745 -41.30078125 47.64453125 C-40.54939166 49.24255699 -39.78675892 50.83529885 -39.01953125 52.42578125 C-38.59607422 53.31330078 -38.17261719 54.20082031 -37.73632812 55.11523438 C-34.68854143 60.48514427 -30.13683281 63.78836585 -24.30078125 65.64453125 C-13.71513133 66.69576207 -4.2530295 65.61269675 4.69921875 59.64453125 C7.55216116 59.80178004 8.48086513 60.40213869 10.40234375 62.53515625 C10.9128125 63.31375 11.42328125 64.09234375 11.94921875 64.89453125 C12.73039063 66.04695312 12.73039063 66.04695312 13.52734375 67.22265625 C14.87548055 70.00880564 15.19730272 71.5912765 14.69921875 74.64453125 C8.44624897 82.02650946 -3.61716836 83.98994384 -12.78857422 84.88818359 C-26.32078995 85.80575264 -37.60809689 84.20113198 -48.4296875 75.359375 C-57.91198422 66.66891935 -63.94941606 57.07211034 -64.57421875 44.01953125 C-64.96854939 29.31565378 -63.46827769 18.33805051 -53.4609375 6.796875 C-39.42085242 -7.1924322 -17.15295681 -10.10539221 0 0 Z " fill="#033758" transform="translate(549.30078125,754.35546875)"/>
<path d="M0 0 C1.01715088 0.00757324 2.03430176 0.01514648 3.08227539 0.02294922 C13.97972403 0.26283842 22.60295361 2.80248216 30.625 10.4375 C37.29212185 17.74102894 40.74652094 26.20471959 40.75439453 36.1081543 C40.75754669 37.24580734 40.76069885 38.38346039 40.76394653 39.55558777 C40.76091019 41.3901226 40.76091019 41.3901226 40.7578125 43.26171875 C40.75876923 44.51886185 40.75972595 45.77600494 40.76071167 47.07124329 C40.76139201 49.72664847 40.76004989 52.38196151 40.75537109 55.03735352 C40.74965663 58.44725806 40.75296691 61.85708419 40.75894356 65.26698589 C40.76341456 68.51523305 40.76029018 71.76347058 40.7578125 75.01171875 C40.75983673 76.24081467 40.76186096 77.46991058 40.76394653 78.73625183 C40.75921829 80.42854668 40.75921829 80.42854668 40.75439453 82.1550293 C40.75359894 83.15334274 40.75280334 84.15165619 40.75198364 85.18022156 C40.625 87.4375 40.625 87.4375 39.625 88.4375 C38.1362814 88.52419432 36.643555 88.54453494 35.15234375 88.53515625 C34.25322266 88.53193359 33.35410156 88.52871094 32.42773438 88.52539062 C31.00944336 88.51282227 31.00944336 88.51282227 29.5625 88.5 C28.61310547 88.49548828 27.66371094 88.49097656 26.68554688 88.48632812 C24.33196935 88.4745011 21.97851523 88.45802025 19.625 88.4375 C19.13 84.4775 19.13 84.4775 18.625 80.4375 C17.90054688 80.99179687 17.17609375 81.54609375 16.4296875 82.1171875 C14.97949219 83.20386719 14.97949219 83.20386719 13.5 84.3125 C12.54867187 85.03179688 11.59734375 85.75109375 10.6171875 86.4921875 C4.97179165 90.1624318 -0.12763778 90.82708395 -6.6875 90.8125 C-7.81526855 90.81008301 -7.81526855 90.81008301 -8.96582031 90.80761719 C-14.83460533 90.67810268 -19.39190846 89.6765095 -24.375 86.4375 C-25.2825 85.90125 -26.19 85.365 -27.125 84.8125 C-32.74739843 78.8777461 -34.71019876 72.95475503 -34.9375 64.8125 C-34.60858237 56.4293172 -32.86141742 51.62382086 -26.9375 45.75 C-16.87016141 37.51137273 -4.40641917 36.42259112 8.0625 35.875 C8.98482422 35.83181641 9.90714844 35.78863281 10.85742188 35.74414062 C13.11316163 35.63895069 15.36899499 35.53680893 17.625 35.4375 C17.17760305 33.9951963 16.72147759 32.55559836 16.26171875 31.1171875 C16.00865967 30.31522949 15.75560059 29.51327148 15.49487305 28.68701172 C13.69430472 24.03070059 10.42745279 21.58973876 6 19.625 C-2.18925231 16.94656033 -9.5068376 17.92015112 -17.18359375 21.5625 C-19.375 22.4375 -19.375 22.4375 -23.375 22.4375 C-25.11328125 20.390625 -25.11328125 20.390625 -26.6875 17.6875 C-27.21988281 16.80578125 -27.75226563 15.9240625 -28.30078125 15.015625 C-29.375 12.4375 -29.375 12.4375 -29.26171875 10.26953125 C-28.14390865 7.96004696 -27.0671945 7.19292646 -24.875 5.875 C-24.2459375 5.48183594 -23.616875 5.08867188 -22.96875 4.68359375 C-15.30846718 1.00342776 -8.47730374 -0.08800694 0 0 Z " fill="#033758" transform="translate(288.375,748.5625)"/>
<path d="M0 0 C9.57758876 6.64221775 14.12864432 15.47377421 16.56292725 26.68470764 C17.37853574 31.85078402 17.25125583 37.03584319 17.21875 42.25390625 C17.21829178 43.45958252 17.21783356 44.66525879 17.21736145 45.9074707 C17.21435508 48.43881218 17.2065176 50.97015208 17.1940918 53.50146484 C17.17570869 57.39427152 17.1735832 61.28684173 17.17382812 65.1796875 C17.16891716 67.64192916 17.1630907 70.1041692 17.15625 72.56640625 C17.15513718 73.73606934 17.15402435 74.90573242 17.15287781 76.11083984 C17.14649796 77.18285645 17.1401181 78.25487305 17.13354492 79.359375 C17.12973312 80.30707764 17.12592133 81.25478027 17.12199402 82.23120117 C16.98828125 84.37890625 16.98828125 84.37890625 15.98828125 85.37890625 C14.35355243 85.46590967 12.7151407 85.48591688 11.078125 85.4765625 C10.08876953 85.47333984 9.09941406 85.47011719 8.08007812 85.46679688 C7.03916016 85.45841797 5.99824219 85.45003906 4.92578125 85.44140625 C3.88099609 85.43689453 2.83621094 85.43238281 1.75976562 85.42773438 C-0.83078535 85.41590538 -3.42122434 85.39942314 -6.01171875 85.37890625 C-6.01718719 84.3719873 -6.01718719 84.3719873 -6.02276611 83.34472656 C-6.06468883 76.33607798 -6.13410357 69.32807828 -6.21923828 62.31982422 C-6.24740349 59.70693462 -6.26864004 57.09396052 -6.28271484 54.48095703 C-6.30420488 50.71733479 -6.35089018 46.95472377 -6.40234375 43.19140625 C-6.40357239 42.02963867 -6.40480103 40.86787109 -6.40606689 39.67089844 C-6.52936964 32.7891192 -7.30533993 28.22875357 -11.01171875 22.37890625 C-14.4608346 19.09403401 -17.23441442 18.09468826 -21.88671875 17.81640625 C-27.16927884 18.03950079 -31.14771042 19.76476451 -35.01171875 23.37890625 C-37.60731775 27.06458362 -38.39120625 29.58220849 -38.42822266 34.07128906 C-38.44478912 35.18884583 -38.46135559 36.30640259 -38.47842407 37.45782471 C-38.48167694 38.65381287 -38.48492981 39.84980103 -38.48828125 41.08203125 C-38.50386078 42.31556335 -38.51944031 43.54909546 -38.53549194 44.82000732 C-38.5749346 48.08782474 -38.60230495 51.35543208 -38.62298584 54.62341309 C-38.65461659 59.24262778 -38.70597439 63.86164246 -38.7593689 68.48065186 C-38.78668886 70.93896531 -38.80799913 73.39735387 -38.82290649 75.85577393 C-38.83829971 77.51319611 -38.83829971 77.51319611 -38.85400391 79.20410156 C-38.86049957 80.18163391 -38.86699524 81.15916626 -38.87368774 82.1663208 C-39.01171875 84.37890625 -39.01171875 84.37890625 -40.01171875 85.37890625 C-47.27171875 85.37890625 -54.53171875 85.37890625 -62.01171875 85.37890625 C-62.01171875 56.99890625 -62.01171875 28.61890625 -62.01171875 -0.62109375 C-55.08171875 -0.62109375 -48.15171875 -0.62109375 -41.01171875 -0.62109375 C-38.96473461 1.42589039 -39.31126182 5.68301866 -39.01171875 8.37890625 C-38.53863281 7.92 -38.06554687 7.46109375 -37.578125 6.98828125 C-27.31228309 -2.53713932 -13.29241696 -7.18441369 0 0 Z " fill="#023657" transform="translate(767.01171875,751.62109375)"/>
<path d="M0 0 C7.26 0 14.52 0 22 0 C22 32.67 22 65.34 22 99 C38.73915174 98.96039063 38.73915174 98.96039063 55.47827148 98.90991211 C57.56754506 98.90699314 59.65681919 98.90444454 61.74609375 98.90234375 C62.84215942 98.89722778 63.9382251 98.89211182 65.06750488 98.88684082 C66.10282349 98.88671997 67.13814209 98.88659912 68.20483398 98.88647461 C69.10862289 98.884254 70.0124118 98.88203339 70.94358826 98.87974548 C73 99 73 99 74 100 C74.09860131 101.40348735 74.13078937 102.81180477 74.1328125 104.21875 C74.13410156 105.06824219 74.13539063 105.91773438 74.13671875 106.79296875 C74.13285156 107.68628906 74.12898437 108.57960938 74.125 109.5 C74.12886719 110.39332031 74.13273438 111.28664063 74.13671875 112.20703125 C74.13542969 113.05652344 74.13414062 113.90601563 74.1328125 114.78125 C74.13168457 115.56564453 74.13055664 116.35003906 74.12939453 117.15820312 C74 119 74 119 73 120 C70.69946165 120.09443335 68.39597827 120.11742128 66.09350586 120.11352539 C65.37159561 120.11367142 64.64968536 120.11381744 63.90589905 120.1139679 C61.50885053 120.11326869 59.11187877 120.10547595 56.71484375 120.09765625 C55.05717511 120.0957921 53.39950593 120.09436818 51.74183655 120.09336853 C47.37045786 120.08954312 42.99911219 120.07971265 38.62774658 120.06866455 C34.17045539 120.05845092 29.71315889 120.05387101 25.25585938 120.04882812 C16.50389107 120.0380904 7.75194964 120.02101371 -1 120 C-1.02332946 104.50160144 -1.04097941 89.00320418 -1.05181217 73.50479221 C-1.05697503 66.30909705 -1.06401753 59.11341278 -1.07543945 51.91772461 C-1.0853866 45.64815306 -1.0918535 39.37858939 -1.09408849 33.10901016 C-1.09539555 29.78734379 -1.09899997 26.46570534 -1.10573006 23.14404488 C-1.11293628 19.44180053 -1.11399112 15.73960369 -1.11352539 12.03735352 C-1.11712067 10.92821091 -1.12071594 9.8190683 -1.12442017 8.67631531 C-1.1230455 7.67365631 -1.12167084 6.67099731 -1.12025452 5.63795471 C-1.12117631 4.76132958 -1.1220981 3.88470446 -1.12304783 2.98151493 C-1 1 -1 1 0 0 Z " fill="#033758" transform="translate(582,717)"/>
<path d="M0 0 C7.59 0 15.18 0 23 0 C23 28.38 23 56.76 23 86 C15.41 86 7.82 86 0 86 C0 57.62 0 29.24 0 0 Z " fill="#003456" transform="translate(666,751)"/>
<path d="M0 0 C3.98104469 3.53051494 7.59289393 7.89119003 8.30078125 13.296875 C8.33313386 20.06935421 7.91181482 25.80456685 3.1953125 30.98046875 C-2.89855538 36.55693275 -7.93817617 38.54599914 -16.21484375 38.37890625 C-21.9964538 37.5923478 -26.03853416 34.28930393 -29.875 30.0625 C-33.82609799 24.36827054 -34.91433104 18.81697448 -34 12 C-31.81311193 4.81076917 -26.98443557 0.24763032 -20.5625 -3.375 C-13.03490527 -5.21099871 -6.66231342 -3.82136038 0 0 Z " fill="#FBFCFB" transform="translate(647,393)"/>
<path d="M0 0 C5.3385664 3.03690903 9.09696488 7.26109131 10.95703125 13.11328125 C11.86483666 20.17516285 11.28970675 26.32371194 6.95703125 32.11328125 C1.99775037 37.3898621 -2.55747662 40.13228163 -9.85546875 40.48828125 C-15.93742819 40.33465077 -20.31322755 38.61857706 -24.80078125 34.5 C-29.84642498 29.0034171 -31.49192994 23.69646073 -31.29296875 16.28515625 C-30.62496224 10.48184965 -27.26980605 6.84862584 -23.04296875 3.11328125 C-15.57728507 -2.262011 -8.56730099 -3.56548424 0 0 Z " fill="#FAFBFB" transform="translate(644.04296875,487.88671875)"/>
<path d="M0 0 C4.58413891 3.97229285 7.55192929 8.5144267 8.3359375 14.61328125 C8.42638655 20.86331072 8.08617427 26.03589439 4 31 C-2.35509818 36.34061462 -7.66857618 38.54632287 -16 38 C-22.0208937 36.85665956 -26.04878229 34.88181504 -29.78125 29.95703125 C-33.13154377 24.5772326 -34.79803996 19.38431972 -34 13 C-31.61990451 5.45554637 -26.22859355 0.37213784 -19.4375 -3.4375 C-12.27279178 -5.0908942 -6.30234367 -3.55090862 0 0 Z " fill="#FAFBFB" transform="translate(695,442)"/>
<path d="M0 0 C5.98859206 2.20007727 9.86815939 6.39286389 13.078125 11.82421875 C15.10212244 16.60119576 14.75478747 22.355984 13.34765625 27.28515625 C10.66249568 33.26626498 6.24396338 37.07115691 0.6875 40.375 C-5.93366294 41.91480533 -12.17848921 41.80416128 -18.17578125 38.41015625 C-22.34031495 35.19089144 -25.34330687 30.9700794 -27 26 C-27.66572293 18.53517235 -27.68405772 13.0052022 -23 7 C-15.72636106 -0.12784216 -10.25699842 -1.00095708 0 0 Z " fill="#FBFCFC" transform="translate(593,439)"/>
<path d="M0 0 C3.70910097 1.78586343 5.54021301 3.36223095 7.9375 6.6875 C9.34529429 11.07650574 9.33635231 14.58351858 8 19 C5.17654079 22.68618286 2.50001569 24.82142446 -2 26 C-6.24450609 26.46303703 -8.43631522 26.29268248 -12.25 24.3125 C-15.67567913 21.43181528 -17.60126884 19.39238695 -18.3515625 14.890625 C-18.6165296 10.73482527 -18.38694361 7.88309565 -15.75 4.5625 C-10.81835204 -0.03289923 -6.61136008 -0.91824446 0 0 Z " fill="#033657" transform="translate(682,714)"/>
<path d="M0 0 C1.05581326 12.23402663 1.05581326 12.23402663 -1.3125 16.1953125 C-6.56960275 20.86568503 -13.07325829 22.49024542 -20.00390625 22.328125 C-23.59770911 21.73736289 -26.02401577 20.06496865 -29 18 C-30.6149958 14.77000839 -30.57759968 11.49246319 -30 8 C-22.85392956 -2.04916156 -10.88488782 -0.33396815 0 0 Z " fill="#FAFBFB" transform="translate(306,800)"/>
<path d="M0 0 C5.46949152 4.33001412 6.84773517 7.46141102 8 14.375 C-4.21 14.375 -16.42 14.375 -29 14.375 C-27.65489739 7.64948693 -25.27565887 4.18623869 -19.9375 -0.0625 C-14.00028697 -3.0635858 -5.91397261 -3.03346009 0 0 Z " fill="#FAFAFB" transform="translate(537,768.625)"/>
<path d="M0 0 C0.85758911 -0.00315216 1.71517822 -0.00630432 2.59875488 -0.009552 C3.53102905 -0.00752777 4.46330322 -0.00550354 5.42382812 -0.00341797 C6.84979309 -0.00485306 6.84979309 -0.00485306 8.30456543 -0.00631714 C10.31876695 -0.00699904 12.33297065 -0.00514409 14.34716797 -0.00097656 C17.44178167 0.00437155 20.53625022 -0.00092124 23.63085938 -0.00732422 C25.58268261 -0.00666344 27.53450576 -0.00538228 29.48632812 -0.00341797 C30.88473938 -0.00645432 30.88473938 -0.00645432 32.31140137 -0.009552 C33.16899048 -0.00639984 34.02657959 -0.00324768 34.91015625 0 C35.66880981 0.00079559 36.42746338 0.00159119 37.20910645 0.00241089 C38.95507812 0.12939453 38.95507812 0.12939453 39.95507812 1.12939453 C40.06386578 2.65307175 40.10411455 4.18172052 40.11621094 5.70922852 C40.12581848 6.68371445 40.13542603 7.65820038 40.14532471 8.66221619 C40.14957458 9.72259598 40.15382446 10.78297577 40.15820312 11.87548828 C40.1639032 12.95693619 40.16960327 14.03838409 40.17547607 15.15260315 C40.18494194 17.44506852 40.19146632 19.73754761 40.1953125 22.0300293 C40.20502711 25.54841665 40.23603978 29.06622236 40.26757812 32.58447266 C40.2741068 34.80647438 40.2793578 37.0284803 40.28320312 39.25048828 C40.29554993 40.30884384 40.30789673 41.3671994 40.32061768 42.45762634 C40.31761658 43.43526443 40.31461548 44.41290253 40.31152344 45.42016602 C40.31699188 46.71469948 40.31699188 46.71469948 40.3225708 48.03538513 C40.20129822 48.72640823 40.08002563 49.41743134 39.95507812 50.12939453 C38.96507812 50.78939453 37.97507813 51.44939453 36.95507812 52.12939453 C37.28507812 35.62939453 37.61507812 19.12939453 37.95507812 2.12939453 C24.42507812 2.12939453 10.89507812 2.12939453 -3.04492188 2.12939453 C-2.71492187 7.40939453 -2.38492188 12.68939453 -2.04492188 18.12939453 C-0.61277344 18.11779297 0.819375 18.10619141 2.29492188 18.09423828 C4.16080599 18.08486198 6.02669152 18.07576161 7.89257812 18.06689453 C8.83810547 18.05851563 9.78363281 18.05013672 10.7578125 18.04150391 C12.10649414 18.03666992 12.10649414 18.03666992 13.48242188 18.03173828 C14.73140259 18.02388306 14.73140259 18.02388306 16.00561523 18.01586914 C17.95507812 18.12939453 17.95507812 18.12939453 18.95507812 19.12939453 C19.04221644 20.83711811 19.0620782 22.54838102 19.05273438 24.25830078 C19.04951172 25.29277344 19.04628906 26.32724609 19.04296875 27.39306641 C19.03458984 28.48167969 19.02621094 29.57029297 19.01757812 30.69189453 C19.01306641 31.784375 19.00855469 32.87685547 19.00390625 34.00244141 C18.99207639 36.71147948 18.97559356 39.42041052 18.95507812 42.12939453 C18.62507813 42.12939453 18.29507813 42.12939453 17.95507812 42.12939453 C17.95507812 34.86939453 17.95507812 27.60939453 17.95507812 20.12939453 C10.7598503 20.16898113 10.7598503 20.16898113 3.56469727 20.21948242 C2.67387451 20.22197998 1.78305176 20.22447754 0.86523438 20.22705078 C-0.50942993 20.23490601 -0.50942993 20.23490601 -1.91186523 20.24291992 C-4.04492188 20.12939453 -4.04492188 20.12939453 -5.04492188 19.12939453 C-5.14329397 17.79895828 -5.1757078 16.46346109 -5.17773438 15.12939453 C-5.17902344 14.32501953 -5.1803125 13.52064453 -5.18164062 12.69189453 C-5.17777344 11.84626953 -5.17390625 11.00064453 -5.16992188 10.12939453 C-5.17378906 9.28376953 -5.17765625 8.43814453 -5.18164062 7.56689453 C-5.18035156 6.76251953 -5.1790625 5.95814453 -5.17773438 5.12939453 C-5.17660645 4.38689453 -5.17547852 3.64439453 -5.17431641 2.87939453 C-4.92061725 -0.55176695 -2.95905723 0.00310314 0 0 Z " fill="#06274B" transform="translate(202.044921875,770.87060546875)"/>
<path d="M0 0 C2.93197533 2.93197533 3.56021055 6.62394075 4.75 10.5 C7.03982118 17.63099668 9.58855251 23.88161051 14 30 C14.53367187 30.7528125 15.06734375 31.505625 15.6171875 32.28125 C27.44437248 48.19617173 43.9231438 59.70160386 63.81640625 62.69921875 C71.19441369 63.39628203 78.59658785 63.70846667 86 64 C86 64.33 86 64.66 86 65 C60.7074325 65.62684935 41.1364352 61.30532078 22 44 C10.68332763 32.38552046 1.05705778 16.38439555 0 0 Z " fill="#00103D" transform="translate(379,350)"/>
<path d="M0 0 C0.33 0.99 0.66 1.98 1 3 C0.20078125 3.72703125 -0.5984375 4.4540625 -1.421875 5.203125 C-9.15581288 12.27212202 -16.65122236 19.53205299 -24 27 C-22.57107422 27.09087891 -22.57107422 27.09087891 -21.11328125 27.18359375 C-19.85902344 27.26738281 -18.60476563 27.35117188 -17.3125 27.4375 C-16.07113281 27.51871094 -14.82976562 27.59992188 -13.55078125 27.68359375 C-10.61819663 27.94491317 -7.86558383 28.34798379 -5 29 C-5 29.33 -5 29.66 -5 30 C-12.92 30 -20.84 30 -29 30 C-25.1819498 25.5456081 -21.51309612 21.39223603 -17.3828125 17.28515625 C-16.88079315 16.78455185 -16.3787738 16.28394745 -15.86154175 15.76817322 C-14.28506329 14.19721402 -12.70511427 12.62980123 -11.125 11.0625 C-10.04403726 9.98656273 -8.96330617 8.91039269 -7.8828125 7.83398438 C-5.25787359 5.21996708 -2.62981372 2.60911404 0 0 Z " fill="#0B6EA4" transform="translate(505,186)"/>
<path d="M0 0 C1.25159912 0.00523682 2.50319824 0.01047363 3.79272461 0.01586914 C4.78942421 0.01799156 4.78942421 0.01799156 5.80625916 0.02015686 C7.93590735 0.02577021 10.06545175 0.03832485 12.19506836 0.05102539 C13.63582205 0.05603868 15.07657739 0.06060188 16.51733398 0.06469727 C20.05577938 0.07574394 23.59416375 0.09301747 27.13256836 0.11352539 C24.41593043 2.83016332 22.83062183 2.4210566 19.03100586 2.52758789 C17.81928711 2.56625977 16.60756836 2.60493164 15.35913086 2.64477539 C14.08811523 2.67571289 12.81709961 2.70665039 11.50756836 2.73852539 C10.22881836 2.77719727 8.95006836 2.81586914 7.63256836 2.85571289 C4.46604819 2.95023588 1.29953796 3.03578896 -1.86743164 3.11352539 C-1.87677734 3.93554443 -1.88612305 4.75756348 -1.89575195 5.60449219 C-1.94951035 9.33727501 -2.03314995 13.0688122 -2.11743164 16.80102539 C-2.13870117 18.74138672 -2.13870117 18.74138672 -2.16040039 20.72094727 C-2.19262695 21.96811523 -2.22485352 23.2152832 -2.25805664 24.50024414 C-2.27900391 25.64710693 -2.29995117 26.79396973 -2.3215332 27.97558594 C-2.9675804 31.6892016 -4.31550347 33.39932304 -6.86743164 36.11352539 C-7.52743164 35.78352539 -8.18743164 35.45352539 -8.86743164 35.11352539 C-8.39305664 34.68040039 -7.91868164 34.24727539 -7.42993164 33.80102539 C-4.40476005 30.53384007 -4.69782436 26.97254241 -4.58618164 22.73071289 C-4.54879883 21.48161133 -4.51141602 20.23250977 -4.47290039 18.94555664 C-4.40237981 16.29972885 -4.33206853 13.65389546 -4.26196289 11.00805664 C-4.22458008 9.7615332 -4.18719727 8.51500977 -4.14868164 7.23071289 C-4.11838867 6.08199707 -4.0880957 4.93328125 -4.05688477 3.74975586 C-3.7927902 0.07489355 -3.71514593 0.14708751 0 0 Z " fill="#021F44" transform="translate(390.867431640625,476.886474609375)"/>
<path d="M0 0 C8.25 0 16.5 0 25 0 C24 4 24 4 21 6 C21.33 5.01 21.66 4.02 22 3 C10.615 2.505 10.615 2.505 -1 2 C-0.67 1.34 -0.34 0.68 0 0 Z " fill="#1D3758" transform="translate(851,750)"/>
<path d="M0 0 C0.99 0 1.98 0 3 0 C3 6.6 3 13.2 3 20 C2.01 20.33 1.02 20.66 0 21 C0 14.07 0 7.14 0 0 Z " fill="#3A99C8" transform="translate(654,198)"/>
<path d="M0 0 C0.66 0.66 1.32 1.32 2 2 C-1.80411834 5.91939465 -5.81576108 9.49102731 -10 13 C-10.66 12.67 -11.32 12.34 -12 12 C-8.27653164 7.57905197 -4.70478962 3.42166518 0 0 Z " fill="#0C3152" transform="translate(158,728)"/>
<path d="M0 0 C0.33 0.66 0.66 1.32 1 2 C-4.66666667 7.66666667 -10.33333333 13.33333333 -16 19 C-16.66 18.67 -17.32 18.34 -18 18 C-12.06 12.06 -6.12 6.12 0 0 Z " fill="#001B41" transform="translate(558,359)"/>
<path d="M0 0 C0.66 0.33 1.32 0.66 2 1 C-5.29840547 9.44646925 -5.29840547 9.44646925 -9 13 C-9.99 12.67 -10.98 12.34 -12 12 C-8 8 -4 4 0 0 Z " fill="#1D7DAF" transform="translate(518,173)"/>
<path d="M0 0 C0.87454834 0.00523682 1.74909668 0.01047363 2.65014648 0.01586914 C3.59438477 0.0190918 4.53862305 0.02231445 5.51147461 0.02563477 C6.50469727 0.03401367 7.49791992 0.04239258 8.52124023 0.05102539 C9.51833008 0.05553711 10.51541992 0.06004883 11.54272461 0.06469727 C14.01478872 0.07652532 16.48673541 0.0930069 18.95874023 0.11352539 C18.95874023 0.44352539 18.95874023 0.77352539 18.95874023 1.11352539 C18.00612305 1.16250977 17.05350586 1.21149414 16.07202148 1.26196289 C14.81776367 1.33672852 13.56350586 1.41149414 12.27124023 1.48852539 C10.40918945 1.59293945 10.40918945 1.59293945 8.50952148 1.69946289 C5.26556252 2.07774633 2.89306838 2.73332515 -0.04125977 4.11352539 C-0.04125977 3.45352539 -0.04125977 2.79352539 -0.04125977 2.11352539 C-1.03125977 1.78352539 -2.02125977 1.45352539 -3.04125977 1.11352539 C-2.04125977 0.11352539 -2.04125977 0.11352539 0 0 Z " fill="#1878AF" transform="translate(573.041259765625,135.886474609375)"/>
<path d="M0 0 C0.33 1.32 0.66 2.64 1 4 C-0.65234375 6.140625 -0.65234375 6.140625 -2.9375 8.25 C-3.68902344 8.95640625 -4.44054687 9.6628125 -5.21484375 10.390625 C-5.80394531 10.92171875 -6.39304687 11.4528125 -7 12 C-7.66 11.67 -8.32 11.34 -9 11 C-6.03 7.37 -3.06 3.74 0 0 Z " fill="#2689BB" transform="translate(616,226)"/>
<path d="M0 0 C0 3 0 3 -1 5 C1.31 5.33 3.62 5.66 6 6 C6 6.33 6 6.66 6 7 C2.04 7 -1.92 7 -6 7 C-4.02 4.69 -2.04 2.38 0 0 Z " fill="#237BAA" transform="translate(482,209)"/>
<path d="M0 0 C1.65 0.33 3.3 0.66 5 1 C-0.14285714 6.57142857 -0.14285714 6.57142857 -4 7 C-2.68 4.69 -1.36 2.38 0 0 Z " fill="#167BAD" transform="translate(541,351)"/>
<path d="M0 0 C0.66 0.33 1.32 0.66 2 1 C1.0919838 2.13199353 0.17316174 3.25532363 -0.75 4.375 C-1.26046875 5.00148437 -1.7709375 5.62796875 -2.296875 6.2734375 C-4.08199481 8.08312318 -5.67949644 9.00117455 -8 10 C-6.34908222 5.70761377 -3.26245434 3.1206085 0 0 Z " fill="#2380B1" transform="translate(537,153)"/>
<path d="M0 0 C0.66 0.33 1.32 0.66 2 1 C0.7260411 3.03833424 -0.61061923 5.03852126 -2 7 C-2.66 7 -3.32 7 -4 7 C-4.33 7.66 -4.66 8.32 -5 9 C-4.42647107 5.12867972 -2.51295648 2.91827204 0 0 Z " fill="#07274A" transform="translate(261,795)"/>
<path d="M0 0 C0 4.38968456 -2.12805101 5.76905739 -5 9 C-5.33 8.01 -5.66 7.02 -6 6 C-4.02 4.02 -2.04 2.04 0 0 Z " fill="#082548" transform="translate(836,765)"/>
</svg>
